<?xml version="1.0" standalone="no"?>
    <!DOCTYPE svg PUBLIC "-//W3C//DTD SVG 20010904//EN"
    "http://www.w3.org/TR/2001/REC-SVG-20010904/DTD/svg10.dtd">
        <svg version="1.0" xmlns="http://www.w3.org/2000/svg"
        width="419.000000pt" height="133.000000pt" viewBox="0 0 419.000000 133.000000"
        preserveAspectRatio="xMidYMid meet">
            <g transform="translate(0.000000,133.000000) scale(0.100000,-0.100000)"
            fill="#000000" stroke="none">
                <path d="M1710 928 c0 -43 8 -65 47 -135 25 -45 48 -81 51 -78 5 4 -88 265
                -94 265 -2 0 -4 -23 -4 -52z"/>
                <path d="M579 860 c29 -25 43 -25 59 0 12 19 10 20 -35 20 l-48 -1 24 -19z"/>
                <path d="M1170 865 c0 -2 18 -14 40 -25 l40 -20 0 25 c0 23 -4 25 -40 25 -22
                0 -40 -2 -40 -5z"/>
                <path d="M3295 846 c16 -23 17 -24 55 -8 22 8 40 19 40 24 0 4 -25 8 -55 8
                l-55 0 15 -24z"/>
                <path d="M1191 511 c-22 -6 -22 -7 13 -24 46 -22 46 -22 46 8 0 26 -12 30 -59
                16z"/>
                <path d="M2467 511 c-15 -6 -12 -9 18 -24 48 -23 55 -22 55 8 0 21 -5 25 -27
                24 -16 0 -36 -4 -46 -8z"/>
                <path d="M2052 460 c3 -8 27 -78 54 -154 l49 -140 3 63 c2 41 -2 68 -10 78 -7
                9 -32 50 -56 92 -24 42 -42 69 -40 61z"/>
            </g>
        </svg>
